<?xml version="1.0" encoding="UTF-8" standalone="no"?>
<!-- Created with Inkscape (http://www.inkscape.org/) -->

<svg
   inkscape:version="1.1.2 (0a00cf5339, 2022-02-04)"
   sodipodi:docname="logo-v2.svg"
   id="svg5"
   version="1.1"
   viewBox="0 0 31.701859 32.035762"
   height="32.035763mm"
   width="31.701859mm"
   xmlns:inkscape="http://www.inkscape.org/namespaces/inkscape"
   xmlns:sodipodi="http://sodipodi.sourceforge.net/DTD/sodipodi-0.dtd"
   xmlns="http://www.w3.org/2000/svg"
   xmlns:svg="http://www.w3.org/2000/svg">
  <sodipodi:namedview
     id="namedview7"
     pagecolor="#505050"
     bordercolor="#eeeeee"
     borderopacity="1"
     inkscape:pageshadow="0"
     inkscape:pageopacity="0"
     inkscape:pagecheckerboard="0"
     inkscape:document-units="mm"
     showgrid="false"
     inkscape:zoom="2"
     inkscape:cx="-8.75"
     inkscape:cy="94.5"
     inkscape:window-width="1919"
     inkscape:window-height="1022"
     inkscape:window-x="1"
     inkscape:window-y="0"
     inkscape:window-maximized="1"
     inkscape:current-layer="svg5"
     showguides="false"
     fit-margin-top="0"
     fit-margin-left="0"
     fit-margin-right="0"
     fit-margin-bottom="0" />
  <defs
     id="defs2" />
  <g
     inkscape:label="Ebene 1"
     inkscape:groupmode="layer"
     id="layer1"
     transform="translate(-25.52049,-7.5226394)" />
  <g
     inkscape:label="Rendered Gears"
     transform="matrix(0.73205806,0,0,0.73205806,11.863904,13.386)"
     id="g7128"
     style="fill:#aa8800;stroke:#000000">
    <g
       id="g13743"
       transform="translate(10.510353,0.789341)">
      <g
         id="g9153"
         transform="matrix(1.3624823,-0.09813491,0.09813491,1.3624823,-52.64607,-24.436497)">
        <path
           style="fill:none;stroke:#aa8800;stroke-width:0.665;stroke-linecap:butt;stroke-linejoin:miter;stroke-miterlimit:4;stroke-dasharray:none;stroke-opacity:1"
           d="m 40.715529,18.325103 1.395712,2.003206 7.93e-4,3.606448 v 0"
           id="path8759" />
        <circle
           style="fill:none;fill-opacity:1;stroke:#aa8800;stroke-width:0.465;stroke-linecap:square;stroke-miterlimit:4;stroke-dasharray:none;stroke-dashoffset:0;stroke-opacity:1"
           id="path8881"
           cx="42.134872"
           cy="24.177368"
           r="0.40702549" />
        <circle
           style="fill:none;fill-opacity:1;stroke:#aa8800;stroke-width:0.465;stroke-linecap:square;stroke-miterlimit:4;stroke-dasharray:none;stroke-dashoffset:0;stroke-opacity:1"
           id="path8881-6"
           cx="45.363792"
           cy="23.050655"
           r="0.40702549" />
        <circle
           style="fill:none;fill-opacity:1;stroke:#aa8800;stroke-width:0.465;stroke-linecap:square;stroke-miterlimit:4;stroke-dasharray:none;stroke-dashoffset:0;stroke-opacity:1"
           id="path8881-6-1"
           cx="46.343525"
           cy="22.226963"
           r="0.40702549" />
        <circle
           style="fill:none;fill-opacity:1;stroke:#aa8800;stroke-width:0.465;stroke-linecap:square;stroke-miterlimit:4;stroke-dasharray:none;stroke-dashoffset:0;stroke-opacity:1"
           id="path8881-6-1-3"
           cx="43.854336"
           cy="18.518196"
           r="0.40702549" />
        <circle
           style="fill:none;fill-opacity:1;stroke:#aa8800;stroke-width:0.465;stroke-linecap:square;stroke-miterlimit:4;stroke-dasharray:none;stroke-dashoffset:0;stroke-opacity:1"
           id="path8881-6-1-3-2"
           cx="48.899509"
           cy="17.692961"
           r="0.40702549" />
        <path
           style="fill:none;stroke:#aa8800;stroke-width:0.665;stroke-linecap:butt;stroke-linejoin:miter;stroke-miterlimit:4;stroke-dasharray:none;stroke-opacity:1"
           d="m 43.94749,16.167035 1.102908,1.518277 -0.04502,2.702984 1.085518,1.562581"
           id="path9330"
           sodipodi:nodetypes="cccc" />
        <path
           style="fill:none;stroke:#aa8800;stroke-width:0.665;stroke-linecap:butt;stroke-linejoin:miter;stroke-miterlimit:4;stroke-dasharray:none;stroke-opacity:1"
           d="M 43.635547,18.21881 42.737564,16.990339"
           id="path10929" />
        <path
           style="fill:none;stroke:#aa8800;stroke-width:0.665;stroke-linecap:butt;stroke-linejoin:miter;stroke-miterlimit:4;stroke-dasharray:none;stroke-opacity:1"
           d="m 44.76954,15.605668 1.38558,1.894902 2.374248,0.174216"
           id="path11110"
           sodipodi:nodetypes="ccc" />
      </g>
      <path
         style="fill:none;stroke:#aa8800;stroke-width:0.665;stroke-linecap:butt;stroke-linejoin:miter;stroke-miterlimit:4;stroke-dasharray:none;stroke-opacity:1"
         d="m 41.641193,17.727068 4.000069,4.826234"
         id="path9069"
         transform="matrix(1.3660119,0,0,1.3660119,-51.067527,-28.561449)" />
      <path
         id="path7500"
         style="color:#000000;fill:#aa8800;stroke:none;stroke-width:0.732057;-inkscape-stroke:none"
         d="m 125.57227,26.248047 -1.31446,4.734375 -0.043,0.853516 0.25586,3.802734 -6.46679,0.851562 -0.73633,-3.738281 -0.26367,-0.814453 -2.4961,-4.232422 -4.52343,1.210938 -0.0449,4.914062 0.17969,0.835938 1.23047,3.607422 -6.02539,2.496093 -1.67969,-3.421875 -0.46484,-0.716797 -3.505862,-3.443359 -4.05664,2.341797 1.226562,4.757812 0.390625,0.761719 2.123047,3.164063 -5.173828,3.970703 -2.507813,-2.869141 -0.634765,-0.574219 -4.277344,-2.417968 -3.3125,3.3125 2.417969,4.279296 0.572265,0.634766 2.871094,2.507813 -3.970703,5.173828 -3.166016,-2.123047 -0.759765,-0.390625 -4.759766,-1.226563 -2.341797,4.054688 3.443359,3.507812 0.71875,0.464844 3.419922,1.679688 -2.496093,6.02539 -3.605469,-1.232422 -0.837891,-0.179687 -4.912109,0.04492 -1.212891,4.52539 4.232422,2.496094 0.814453,0.263672 3.738282,0.736328 -0.851563,6.466797 -3.800781,-0.255859 -0.855469,0.04297 -4.734375,1.314453 v 4.683594 l 4.734375,1.316406 0.855469,0.04297 3.800781,-0.255859 0.851563,6.466797 -3.738282,0.736328 -0.814453,0.261719 -4.232422,2.496093 1.212891,4.52539 4.912109,0.0449 0.837891,-0.17969 3.605469,-1.23046 2.496093,6.02539 -3.419922,1.67968 -0.71875,0.46485 -3.443359,3.50586 2.341797,4.05664 4.759766,-1.22852 0.759765,-0.38867 3.166016,-2.12305 3.970703,5.17383 -2.871094,2.50781 -0.572265,0.63477 -2.417969,4.27734 3.3125,3.3125 4.277344,-2.41797 0.634765,-0.57421 2.507813,-2.86915 5.173828,3.97071 -2.123047,3.16406 -0.390625,0.76172 -1.226562,4.75977 4.05664,2.34179 3.505862,-3.44336 0.46484,-0.71875 1.67969,-3.41992 6.02539,2.49609 -1.23047,3.60547 -0.17969,0.83594 0.0449,4.91406 4.52343,1.21289 2.4961,-4.23242 0.26367,-0.81445 0.73633,-3.73828 6.46679,0.84961 -0.25586,3.80273 0.043,0.85547 1.31446,4.73437 h 4.68554 l 1.31446,-4.73437 0.043,-0.85547 -0.25585,-3.80273 3.34179,-0.43946 -2.90625,-20.52734 a 30.000077,30.000077 0 0 1 -3.51172,0.23828 30.000077,30.000077 0 0 1 -29.999997,-29.999998 30.000077,30.000077 0 0 1 29.999997,-30 30.000077,30.000077 0 0 1 24.04492,12.126953 L 168.9668,56.25 l -2.44922,-3.193359 2.87109,-2.507813 0.57227,-0.634766 2.41797,-4.279296 -3.3125,-3.3125 -4.27735,2.417968 -0.63476,0.574219 -2.50782,2.869141 -5.17382,-3.970703 2.12304,-3.164063 0.39063,-0.761719 1.22656,-4.757812 -4.05664,-2.341797 -3.50586,3.443359 -0.46484,0.716797 -1.67969,3.421875 -6.02539,-2.496093 1.23242,-3.607422 0.17969,-0.835938 -0.0469,-4.914062 -4.52343,-1.210938 -2.4961,4.232422 -0.26367,0.814453 -0.73633,3.738281 -6.46679,-0.851562 0.25585,-3.802734 -0.043,-0.853516 -1.31446,-4.734375 z"
         transform="matrix(0.36142397,0,0,0.36142397,-51.067527,-28.561449)" />
      <path
         id="rect12290"
         style="stroke:none;stroke-width:1.05568;stroke-linecap:square"
         d="m -2.976635,13.599445 1.5133946,-0.303353 2.08431517,7.237521 -2.41453707,0.532949 z"
         sodipodi:nodetypes="ccccc" />
      <path
         id="rect12290-5"
         style="fill:#aa8800;stroke:none;stroke-width:1.05568;stroke-linecap:square"
         d="m -0.98702189,13.169934 1.46077838,-0.49851 3.01218631,6.903101 -2.3241924,0.843892 z"
         sodipodi:nodetypes="ccccc" />
      <path
         id="rect12290-5-9"
         style="fill:#aa8800;stroke:none;stroke-width:1.05568;stroke-linecap:square"
         d="M 0.84213403,12.510901 2.2189547,11.813227 6.1658863,18.227882 3.9823624,19.38816 Z"
         sodipodi:nodetypes="ccccc" />
      <path
         style="fill:none;stroke:#aa8800;stroke-width:0.908398;stroke-linecap:butt;stroke-linejoin:miter;stroke-miterlimit:4;stroke-dasharray:none;stroke-opacity:1"
         d="M 2.7441978,11.972655 6.018605,9.7945516"
         id="path13033" />
      <path
         style="fill:none;stroke:#aa8800;stroke-width:0.908398;stroke-linecap:butt;stroke-linejoin:miter;stroke-miterlimit:4;stroke-dasharray:none;stroke-opacity:1"
         d="M 6.232119,17.659236 9.5922122,15.615795"
         id="path13033-4" />
      <path
         style="fill:none;stroke:#aa8800;stroke-width:0.908398;stroke-linecap:butt;stroke-linejoin:miter;stroke-miterlimit:4;stroke-dasharray:none;stroke-opacity:1"
         d="m 3.4381249,13.080252 2.13279,-1.429901"
         id="path13033-9"
         sodipodi:nodetypes="cc" />
      <path
         style="fill:none;stroke:#aa8800;stroke-width:0.908398;stroke-linecap:butt;stroke-linejoin:miter;stroke-miterlimit:4;stroke-dasharray:none;stroke-opacity:1"
         d="M 4.1422737,14.240344 8.9732871,11.086292"
         id="path13033-1"
         sodipodi:nodetypes="cc" />
      <path
         style="fill:#aa8800;stroke:#aa8800;stroke-width:0.908398;stroke-linecap:butt;stroke-linejoin:miter;stroke-miterlimit:4;stroke-dasharray:none;stroke-opacity:1"
         d="M 4.8478105,15.369116 6.0860256,14.568911"
         id="path13471" />
    </g>
  </g>
</svg>
